<svg width="13" height="13" viewBox="0 0 13 13" fill="none" xmlns="http://www.w3.org/2000/svg">
<path d="M10.7737 4.62692L7.90321 4.20974L6.62001 1.60829C6.58497 1.53706 6.52731 1.4794 6.45608 1.44436C6.27745 1.35617 6.06038 1.42966 5.97107 1.60829L4.68787 4.20974L1.81735 4.62692C1.73821 4.63822 1.66585 4.67553 1.61045 4.73206C1.54348 4.8009 1.50657 4.89351 1.50784 4.98954C1.50912 5.08557 1.54846 5.17717 1.61723 5.24421L3.69409 7.26906L3.20343 10.1283C3.19192 10.1948 3.19928 10.2632 3.22467 10.3257C3.25006 10.3883 3.29247 10.4425 3.34709 10.4821C3.4017 10.5218 3.46634 10.5454 3.53367 10.5502C3.60099 10.555 3.66832 10.5408 3.72801 10.5093L6.29554 9.15938L8.86307 10.5093C8.93316 10.5466 9.01456 10.559 9.09257 10.5455C9.28929 10.5115 9.42157 10.325 9.38765 10.1283L8.89699 7.26906L10.9738 5.24421C11.0304 5.18881 11.0677 5.11645 11.079 5.03731C11.1095 4.83946 10.9716 4.65631 10.7737 4.62692Z" fill="#FFD659"/>
</svg>
