<svg width="25" height="25" viewBox="0 0 25 25" fill="none" xmlns="http://www.w3.org/2000/svg">
<circle cx="12.5" cy="12.5" r="12.5" fill="#37DAF3"/>
<path d="M19.7623 7.29116C19.2057 7.53783 18.6077 7.70449 17.979 7.77983C18.6277 7.39169 19.113 6.7808 19.3443 6.06116C18.7349 6.42315 18.0679 6.67796 17.3723 6.81449C16.9046 6.31507 16.285 5.98404 15.6099 5.87281C14.9347 5.76158 14.2417 5.87636 13.6385 6.19933C13.0353 6.5223 12.5555 7.0354 12.2738 7.65896C11.992 8.28252 11.924 8.98166 12.0803 9.64783C10.8455 9.58582 9.63742 9.26486 8.53462 8.70576C7.43181 8.14667 6.45889 7.36194 5.679 6.40249C5.41233 6.86249 5.259 7.39583 5.259 7.96383C5.2587 8.47516 5.38462 8.97866 5.62559 9.42965C5.86655 9.88064 6.21511 10.2652 6.64033 10.5492C6.14718 10.5335 5.66492 10.4002 5.23367 10.1605V10.2005C5.23362 10.9177 5.48169 11.6127 5.93579 12.1678C6.38989 12.7229 7.02205 13.1038 7.725 13.2458C7.26752 13.3696 6.78789 13.3879 6.32233 13.2992C6.52066 13.9162 6.907 14.4558 7.42724 14.8424C7.94749 15.229 8.57561 15.4433 9.22367 15.4552C8.12356 16.3188 6.76493 16.7872 5.36633 16.7852C5.11859 16.7852 4.87105 16.7708 4.625 16.7418C6.04465 17.6546 7.69723 18.139 9.385 18.1372C15.0983 18.1372 18.2217 13.4052 18.2217 9.30116C18.2217 9.16783 18.2183 9.03316 18.2123 8.89983C18.8199 8.46048 19.3443 7.91642 19.761 7.29316L19.7623 7.29116Z" fill="white"/>
</svg>
